<svg width="1232" height="273" viewBox="0 0 1232 273" fill="none" xmlns="http://www.w3.org/2000/svg">
<path opacity="0.2" d="M136.538 0.0234375C61.1441 0.0234375 0 61.1403 0 136.523C0 211.906 61.1441 273 136.538 273C211.932 273 273.076 211.883 273.076 136.523C273.076 61.1627 211.954 0.0234375 136.538 0.0234375ZM136.538 233.965C82.698 233.965 39.03 190.339 39.03 136.501C39.03 82.6622 82.698 39.0585 136.538 39.0585C190.378 39.0585 234.046 82.6846 234.046 136.523C234.046 190.361 190.4 233.988 136.538 233.988V233.965Z" fill="white"/>
<path opacity="0.2" d="M708.949 3.69678H671.039V269.44H708.949V3.69678Z" fill="white"/>
<path opacity="0.2" d="M887.339 118.874V118.942C829.511 105.908 819.809 93.8588 819.809 71.9114V71.1948C819.809 49.2473 840.646 33.9289 870.4 33.9289C897.04 33.9289 920.431 42.7751 943.957 61.7663L945.1 62.6845L966.295 33.6378L965.242 32.7868C936.473 9.76437 908.332 0 871.14 0C819.63 0 782.28 31.3087 782.28 74.3749V75.0916C782.28 124.451 817.994 141.964 871.565 153.072C925.921 164.83 936.182 178.155 936.182 198.624V199.341C936.182 223.147 914.494 239.07 882.32 239.07C850.146 239.07 823.864 228.724 795.455 203.305L794.401 202.319L771.234 229.799L772.287 230.717C803.61 258.756 840.31 272.999 881.267 272.999C936.608 272.999 973.734 242.116 973.734 196.071V195.355C973.734 154.841 948.729 132.67 887.361 118.852L887.339 118.874Z" fill="white"/>
<path opacity="0.2" d="M1232 37.984V3.69678H1035.84V269.462H1232V235.242H1073.35V152.805H1232V118.585H1073.35V37.984H1232Z" fill="white"/>
<path opacity="0.2" d="M333.637 269.103H371.748V101.205C356.781 90.0746 343.876 76.3238 333.637 60.6919V269.103Z" fill="white"/>
<path opacity="0.2" d="M560.672 101.205V269.103H598.783V60.6919C588.544 76.3462 575.639 90.0746 560.672 101.205Z" fill="white"/>
<path opacity="0.2" d="M557.891 3.69678C545.412 42.4183 509.093 70.4349 466.209 70.4349C423.325 70.4349 387.006 42.4183 374.526 3.69678H333.637C347.125 64.4777 401.346 109.918 466.209 109.918C531.072 109.918 585.271 64.4553 598.781 3.69678H557.891Z" fill="white"/>
</svg>
