<svg width="144" height="32" viewBox="0 0 144 32" fill="none" xmlns="http://www.w3.org/2000/svg">
<g clip-path="url(#clip0_1358_8882)">
<path d="M15.8543 0.230244C7.09984 0.230244 0 7.33008 0 16.0872C0 24.8442 7.09984 31.9415 15.8543 31.9415C24.6088 31.9415 31.7086 24.8416 31.7086 16.0872C31.7086 7.33268 24.6114 0.230244 15.8543 0.230244ZM15.8543 27.4068C9.6026 27.4068 4.53203 22.3389 4.53203 16.0846C4.53203 9.83024 9.6026 4.76488 15.8543 4.76488C22.106 4.76488 27.1766 9.83284 27.1766 16.0872C27.1766 22.3415 22.1086 27.4094 15.8543 27.4094V27.4068Z" fill="white"/>
<path d="M82.3207 0.656883H77.9187V31.5278H82.3207V0.656883Z" fill="white"/>
<path d="M103.035 14.0371V14.0449C96.3201 12.5307 95.1935 11.1311 95.1935 8.58146V8.49821C95.1935 5.94862 97.6131 4.16911 101.068 4.16911C104.161 4.16911 106.877 5.19675 109.609 7.40293L109.742 7.50959L112.203 4.13528L112.081 4.03642C108.74 1.36195 105.473 0.227642 101.154 0.227642C95.1727 0.227642 90.8358 3.86472 90.8358 8.86764V8.95089C90.8358 14.6849 94.9828 16.7194 101.203 18.0098C107.515 19.3756 108.706 20.9236 108.706 23.3015V23.3847C108.706 26.1502 106.188 28 102.452 28C98.7161 28 95.6644 26.798 92.3656 23.8452L92.2433 23.7307L89.5532 26.9229L89.6755 27.0296C93.3126 30.2868 97.574 31.9415 102.33 31.9415C108.756 31.9415 113.067 28.3538 113.067 23.0049V22.9216C113.067 18.2153 110.163 15.6397 103.037 14.0345L103.035 14.0371Z" fill="white"/>
<path d="M143.056 4.63997V0.656883H120.278V31.5304H143.056V27.5551H124.633V17.9785H143.056V14.0032H124.633V4.63997H143.056Z" fill="white"/>
<path d="M38.7408 31.4888H43.1662V11.9844C41.4283 10.6914 39.9298 9.09401 38.7408 7.27807V31.4888Z" fill="white"/>
<path d="M65.1032 11.9844V31.4888H69.5285V7.27807C68.3396 9.09661 66.8411 10.6914 65.1032 11.9844Z" fill="white"/>
<path d="M64.7805 0.656883C63.3314 5.1551 59.1142 8.40973 54.1347 8.40973C49.1552 8.40973 44.9379 5.1551 43.4888 0.656883H38.7408C40.307 7.7177 46.603 12.9964 54.1347 12.9964C61.6664 12.9964 67.9597 7.7151 69.5285 0.656883H64.7805Z" fill="#80FFBF"/>
</g>
<defs>
<clipPath id="clip0_1358_8882">
<rect width="143.089" height="32" fill="white"/>
</clipPath>
</defs>
</svg>
